<svg width="40" height="40" viewBox="0 0 40 40" fill="none" xmlns="http://www.w3.org/2000/svg">
<circle cx="20" cy="20" r="20" fill="#D11F9E"/>
<g clip-path="url(#clip0_13_260)">
<path d="M14.4996 35.3905C13.864 35.3905 13.3238 35.1681 12.8789 34.7232C12.434 34.2783 12.2116 33.7381 12.2116 33.1025C12.2116 32.4669 12.434 31.9267 12.8789 31.4818C13.3238 31.0369 13.864 30.8145 14.4996 30.8145C15.1139 30.8145 15.6489 31.0369 16.1044 31.4818C16.5598 31.9267 16.7876 32.4669 16.7876 33.1025C16.7876 33.7381 16.5651 34.2783 16.1202 34.7232C15.6754 35.1681 15.1351 35.3905 14.4996 35.3905ZM27.2107 35.3905C26.5752 35.3905 26.0349 35.1681 25.5901 34.7232C25.1452 34.2783 24.9227 33.7381 24.9227 33.1025C24.9227 32.4669 25.1452 31.9267 25.5901 31.4818C26.0349 31.0369 26.5752 30.8145 27.2107 30.8145C27.8251 30.8145 28.36 31.0369 28.8155 31.4818C29.271 31.9267 29.4987 32.4669 29.4987 33.1025C29.4987 33.7381 29.2763 34.2783 28.8314 34.7232C28.3865 35.1681 27.8463 35.3905 27.2107 35.3905ZM12.8471 14.4171L16.3427 21.6625H25.4947L29.467 14.4171H12.8471ZM11.8938 12.5105H30.611C31.2889 12.5105 31.7179 12.717 31.898 13.1301C32.078 13.5432 32.0198 14.004 31.7232 14.5125L27.4332 22.2345C27.2213 22.5946 26.9247 22.9071 26.5434 23.1719C26.1621 23.4367 25.7489 23.5691 25.3041 23.5691H15.6754L13.8958 26.874H29.4987V28.7807H14.1818C13.292 28.7807 12.6512 28.4841 12.2592 27.8909C11.8673 27.2978 11.8726 26.6304 12.2751 25.8889L14.3089 22.1391L9.47867 11.9067H7V10H10.718L11.8938 12.5105ZM16.3427 21.6625H25.4947H16.3427Z" fill="white"/>
</g>
<defs>
<clipPath id="clip0_13_260">
<rect width="30" height="30" fill="white" transform="translate(4 5)"/>
</clipPath>
</defs>
</svg>
