<svg width="31" height="31" viewBox="0 0 31 31" fill="none" xmlns="http://www.w3.org/2000/svg">
<path d="M9.77539 23.0926L15.4004 17.4676L21.0254 23.0926L22.6004 21.5176L16.9754 15.8926L22.6004 10.2676L21.0254 8.69264L15.4004 14.3176L9.77539 8.69264L8.20039 10.2676L13.8254 15.8926L8.20039 21.5176L9.77539 23.0926ZM15.4004 30.8926C13.2754 30.8926 11.3004 30.5114 9.47539 29.7489C7.65039 28.9864 6.06289 27.9301 4.71289 26.5801C3.36289 25.2301 2.30664 23.6426 1.54414 21.8176C0.781641 19.9926 0.400391 18.0176 0.400391 15.8926C0.400391 13.7926 0.781641 11.8301 1.54414 10.0051C2.30664 8.18014 3.36289 6.59264 4.71289 5.24264C6.06289 3.89264 7.65039 2.83014 9.47539 2.05514C11.3004 1.28014 13.2754 0.892639 15.4004 0.892639C17.5004 0.892639 19.4629 1.28014 21.2879 2.05514C23.1129 2.83014 24.7004 3.89264 26.0504 5.24264C27.4004 6.59264 28.4629 8.18014 29.2379 10.0051C30.0129 11.8301 30.4004 13.7926 30.4004 15.8926C30.4004 18.0176 30.0129 19.9926 29.2379 21.8176C28.4629 23.6426 27.4004 25.2301 26.0504 26.5801C24.7004 27.9301 23.1129 28.9864 21.2879 29.7489C19.4629 30.5114 17.5004 30.8926 15.4004 30.8926ZM15.4004 28.6426C18.9004 28.6426 21.9004 27.3926 24.4004 24.8926C26.9004 22.3926 28.1504 19.3926 28.1504 15.8926C28.1504 12.3926 26.9004 9.39264 24.4004 6.89264C21.9004 4.39264 18.9004 3.14264 15.4004 3.14264C11.9004 3.14264 8.90039 4.39264 6.40039 6.89264C3.90039 9.39264 2.65039 12.3926 2.65039 15.8926C2.65039 19.3926 3.90039 22.3926 6.40039 24.8926C8.90039 27.3926 11.9004 28.6426 15.4004 28.6426Z" fill="#FF0000"/>
</svg>
