<svg width="82" height="40" viewBox="0 0 82 40" fill="none" xmlns="http://www.w3.org/2000/svg">
<path d="M0.119995 39V6.99999H9.14V9.39999H2.75999V21.7H8.74V24.08H2.75999V36.6H9.14V39H0.119995Z" fill="white"/>
<path d="M10.92 39L14.52 22.68L11.1 6.99999H13.68L15.12 14.54L16.22 21.6H17L18.08 14.54L19.5 6.99999H22.08L18.74 22.76L22.26 39H19.66L18.14 31.08L17 24H16.22L15.08 31.08L13.5 39H10.92Z" fill="#D11F9E"/>
<path d="M30.2 39.28C28.3467 39.28 27.0133 38.88 26.2 38.08C25.4 37.2667 24.98 35.9333 24.94 34.08C24.9 32.1733 24.8667 30.3067 24.84 28.48C24.8267 26.64 24.82 24.8133 24.82 23C24.82 21.1867 24.8267 19.3667 24.84 17.54C24.8667 15.7133 24.9 13.84 24.94 11.92C24.98 10.0667 25.4 8.73999 26.2 7.93998C27.0133 7.12665 28.3467 6.71999 30.2 6.71999C32.0667 6.71999 33.4 7.12665 34.2 7.93998C35.0133 8.73999 35.4333 10.0667 35.46 11.92C35.5 13.84 35.5267 15.72 35.54 17.56C35.5667 19.3867 35.58 21.2067 35.58 23.02C35.58 24.82 35.5667 26.64 35.54 28.48C35.5267 30.3067 35.5 32.1733 35.46 34.08C35.4333 35.9333 35.0133 37.2667 34.2 38.08C33.4 38.88 32.0667 39.28 30.2 39.28ZM30.2 37C31.1333 37 31.8 36.8133 32.2 36.44C32.6 36.0533 32.8067 35.4 32.82 34.48C32.8733 32.52 32.9067 30.58 32.92 28.66C32.9467 26.7267 32.96 24.8133 32.96 22.92C32.96 21.0133 32.9467 19.1133 32.92 17.22C32.8933 15.3133 32.86 13.4133 32.82 11.52C32.8067 10.6 32.5933 9.94665 32.18 9.55998C31.78 9.17332 31.12 8.97999 30.2 8.97999C29.2933 8.97999 28.64 9.17332 28.24 9.55998C27.84 9.94665 27.6267 10.6 27.6 11.52C27.5467 13.4133 27.5067 15.3133 27.48 17.22C27.4533 19.1133 27.44 21.0133 27.44 22.92C27.4533 24.8133 27.4733 26.7267 27.5 28.66C27.5267 30.58 27.56 32.52 27.6 34.48C27.6267 35.4 27.84 36.0533 28.24 36.44C28.64 36.8133 29.2933 37 30.2 37ZM29.32 5.39999L32.12 0.859985H34.12L31.24 5.39999H29.32Z" fill="white"/>
<path d="M41.2644 39V9.39999H37.1844V6.99999H47.9844V9.39999H43.9244V39H41.2644Z" fill="white"/>
<path d="M50.3153 39V6.99999H52.9553V39H50.3153Z" fill="white"/>
<path d="M62.1703 39.3C60.3436 39.3 59.0303 38.8933 58.2303 38.08C57.4436 37.2533 57.0303 35.9067 56.9903 34.04C56.9503 32.16 56.9236 30.3067 56.9103 28.48C56.897 26.6533 56.8903 24.8333 56.8903 23.02C56.8903 21.2067 56.897 19.3867 56.9103 17.56C56.9236 15.72 56.9503 13.86 56.9903 11.98C57.017 10.2467 57.4303 8.94665 58.2303 8.07998C59.0436 7.19998 60.3436 6.75998 62.1303 6.75998C63.957 6.75998 65.277 7.16665 66.0903 7.97998C66.9036 8.77998 67.3436 10.12 67.4103 12C67.4236 12.5067 67.4303 13.1467 67.4303 13.92C67.4303 14.68 67.4236 15.4467 67.4103 16.22C67.397 16.98 67.3836 17.6133 67.3703 18.12H64.7303C64.7436 17.44 64.7503 16.7267 64.7503 15.98C64.7636 15.2333 64.7703 14.4867 64.7703 13.74C64.7703 12.98 64.7636 12.2667 64.7503 11.6C64.737 10.6533 64.5236 9.98665 64.1103 9.59999C63.7103 9.19998 63.0503 8.99998 62.1303 8.99998C61.277 8.99998 60.657 9.19998 60.2703 9.59999C59.8836 9.98665 59.677 10.6533 59.6503 11.6C59.6103 13.5733 59.577 15.5067 59.5503 17.4C59.537 19.28 59.5303 21.1533 59.5303 23.02C59.5303 24.8733 59.537 26.7467 59.5503 28.64C59.577 30.52 59.6103 32.4533 59.6503 34.44C59.677 35.36 59.8836 36.0267 60.2703 36.44C60.6703 36.84 61.3036 37.04 62.1703 37.04C63.1303 37.04 63.8236 36.84 64.2503 36.44C64.677 36.0267 64.897 35.36 64.9103 34.44C64.9236 33.7067 64.9303 32.94 64.9303 32.14C64.9303 31.34 64.9236 30.54 64.9103 29.74C64.897 28.94 64.8836 28.18 64.8703 27.46H67.5303C67.5703 28.5933 67.5903 29.6933 67.5903 30.76C67.6036 31.8133 67.597 32.9067 67.5703 34.04C67.5036 35.9067 67.0503 37.2533 66.2103 38.08C65.3836 38.8933 64.037 39.3 62.1703 39.3Z" fill="white"/>
<path d="M69.8956 39L73.3156 6.99999H78.2756L81.6756 39H78.9756L78.1356 29.72H73.4356L72.6156 39H69.8956ZM73.6956 27.32H77.8756L77.2556 20.32L76.3556 9.39999H75.2356L74.3356 20.34L73.6956 27.32Z" fill="white"/>
</svg>
