<svg width="37" height="34" viewBox="0 0 37 34" fill="none" xmlns="http://www.w3.org/2000/svg">
<path d="M15.8211 33.3333L14.2172 32.0417C14.0527 31.9028 13.9294 31.7083 13.8471 31.4583C13.7649 31.2083 13.7237 30.9028 13.7237 30.5417V30.125L15.5743 21.3333H3.27823C2.62025 21.3333 2.04451 21.0833 1.55102 20.5833C1.05754 20.0833 0.810791 19.5 0.810791 18.8333V15.4167C0.810791 15 0.831353 14.6528 0.872477 14.375C0.913601 14.0972 0.947871 13.9167 0.975287 13.8333L5.99242 2.125C6.23917 1.54167 6.64355 1.04167 7.20558 0.625C7.76761 0.208333 8.36391 0 8.99448 0H24.7861C25.4441 0 26.0198 0.25 26.5133 0.75C27.0068 1.25 27.2536 1.83333 27.2536 2.5V20.2917C27.2536 20.6528 27.1987 20.9722 27.0891 21.25C26.9794 21.5278 26.7738 21.8194 26.4722 22.125L15.8211 33.3333ZM16.4379 29.2083L24.7861 20.2917V2.5H8.45987L3.27823 14.9583V18.8333H18.6175L16.4379 29.2083ZM29.721 20.2917H37V0H29.721V20.2917ZM24.7861 18.8333V14.9583V2.5V20.2917V18.8333Z" fill="#717171"/>
</svg>
