<svg width="40" height="40" viewBox="0 0 40 40" fill="none" xmlns="http://www.w3.org/2000/svg">
<circle cx="20" cy="20" r="20" fill="#D11F9E"/>
<g clip-path="url(#clip0_13_258)">
<path d="M25.625 8.75C23.45 8.75 21.3625 9.7625 20 11.3625C18.6375 9.7625 16.55 8.75 14.375 8.75C10.525 8.75 7.5 11.775 7.5 15.625C7.5 20.35 11.75 24.2 18.1875 30.05L20 31.6875L21.8125 30.0375C28.25 24.2 32.5 20.35 32.5 15.625C32.5 11.775 29.475 8.75 25.625 8.75ZM20.125 28.1875L20 28.3125L19.875 28.1875C13.925 22.8 10 19.2375 10 15.625C10 13.125 11.875 11.25 14.375 11.25C16.3 11.25 18.175 12.4875 18.8375 14.2H21.175C21.825 12.4875 23.7 11.25 25.625 11.25C28.125 11.25 30 13.125 30 15.625C30 19.2375 26.075 22.8 20.125 28.1875Z" fill="white"/>
</g>
<defs>
<clipPath id="clip0_13_258">
<rect width="30" height="30" fill="white" transform="translate(4 5)"/>
</clipPath>
</defs>
</svg>
