<svg width="37" height="34" viewBox="0 0 37 34" fill="none" xmlns="http://www.w3.org/2000/svg">
<path d="M12.8841 33.3333C12.2261 33.3333 11.6504 33.0833 11.1569 32.5833C10.6634 32.0833 10.4167 31.5 10.4167 30.8333V13.0417C10.4167 12.6806 10.4715 12.3611 10.5812 12.0833C10.6908 11.8056 10.8965 11.5139 11.198 11.2083L21.8492 0L23.453 1.29167C23.6175 1.43056 23.7409 1.625 23.8231 1.875C23.9054 2.125 23.9465 2.43056 23.9465 2.79167V3.20833L22.0959 12H34.392C35.05 12 35.6257 12.25 36.1192 12.75C36.6127 13.25 36.8595 13.8333 36.8595 14.5V17.9167C36.8595 18.3333 36.8389 18.6806 36.7978 18.9583C36.7566 19.2361 36.7224 19.4167 36.695 19.5L31.6778 31.2083C31.4311 31.7917 31.0267 32.2917 30.4647 32.7083C29.9026 33.125 29.3063 33.3333 28.6758 33.3333H12.8841ZM12.8841 30.8333H29.2104L34.392 18.375V14.5H19.0527L21.2323 4.125L12.8841 13.0417V30.8333ZM0.670288 33.3333H7.94925V13.0417H0.670288V33.3333ZM12.8841 30.8333V13.0417V14.5V18.375V30.8333Z" fill="#D11F9E"/>
</svg>
