<svg width="40" height="40" viewBox="0 0 40 40" fill="none" xmlns="http://www.w3.org/2000/svg">
<circle cx="20" cy="20" r="19.5" stroke="#D11F9E"/>
<path d="M15.5736 22.9009L15.6982 22.9823H15.847H23.8078H23.9592L24.0852 22.8983C25.0928 22.2265 25.8919 21.3534 26.4787 20.2847C27.0681 19.2111 27.3629 18.0511 27.3629 16.8127C27.3629 14.7403 26.6192 12.9537 25.1455 11.48C23.6718 10.0063 21.8852 9.26255 19.8127 9.26255C17.7403 9.26255 15.9537 10.0063 14.48 11.48C13.0063 12.9537 12.2625 14.7403 12.2625 16.8127C12.2625 18.0511 12.5574 19.2111 13.1468 20.2847C13.7349 21.3559 14.5457 22.2296 15.5736 22.9009ZM19.8127 31.5C19.2761 31.5 18.8412 31.3202 18.4772 30.9561C18.2335 30.7124 18.0723 30.437 17.9924 30.1206H21.633C21.5531 30.437 21.392 30.7124 21.1483 30.9561C20.7842 31.3202 20.3494 31.5 19.8127 31.5ZM15.5539 27.2993V26.5367H24.0716V27.2993H15.5539ZM15.3511 23.7448C14.1774 22.9564 13.2495 21.9853 12.5603 20.8306C11.8562 19.651 11.5 18.3161 11.5 16.8127C11.5 14.5607 12.3155 12.6205 13.968 10.968C15.6205 9.31548 17.5607 8.5 19.8127 8.5C22.0647 8.5 24.0049 9.31548 25.6575 10.968C27.31 12.6205 28.1255 14.5607 28.1255 16.8127C28.1255 18.3173 27.7736 19.6531 27.0784 20.8331C26.3994 21.9856 25.4683 22.9562 24.2762 23.7448H15.3511Z" fill="white" stroke="#D11F9E"/>
</svg>
