<svg width="82" height="39" viewBox="0 0 82 39" fill="none" xmlns="http://www.w3.org/2000/svg">
<path d="M0 38.14V6.14H9.02V8.54H2.64V20.84H8.62V23.22H2.64V35.74H9.02V38.14H0Z" fill="white"/>
<path d="M10.8 38.14L14.4 21.82L10.98 6.14H13.56L15 13.68L16.1 20.74H16.88L17.96 13.68L19.38 6.14H21.96L18.62 21.9L22.14 38.14H19.54L18.02 30.22L16.88 23.14H16.1L14.96 30.22L13.38 38.14H10.8Z" fill="#FF3333"/>
<path d="M30.08 38.42C28.2267 38.42 26.8933 38.02 26.08 37.22C25.28 36.4067 24.86 35.0733 24.82 33.22C24.78 31.3133 24.7467 29.4467 24.72 27.62C24.7067 25.78 24.7 23.9533 24.7 22.14C24.7 20.3267 24.7067 18.5067 24.72 16.68C24.7467 14.8533 24.78 12.98 24.82 11.06C24.86 9.20667 25.28 7.88 26.08 7.08C26.8933 6.26667 28.2267 5.86 30.08 5.86C31.9467 5.86 33.28 6.26667 34.08 7.08C34.8933 7.88 35.3133 9.20667 35.34 11.06C35.38 12.98 35.4067 14.86 35.42 16.7C35.4467 18.5267 35.46 20.3467 35.46 22.16C35.46 23.96 35.4467 25.78 35.42 27.62C35.4067 29.4467 35.38 31.3133 35.34 33.22C35.3133 35.0733 34.8933 36.4067 34.08 37.22C33.28 38.02 31.9467 38.42 30.08 38.42ZM30.08 36.14C31.0133 36.14 31.68 35.9533 32.08 35.58C32.48 35.1933 32.6867 34.54 32.7 33.62C32.7533 31.66 32.7867 29.72 32.8 27.8C32.8267 25.8667 32.84 23.9533 32.84 22.06C32.84 20.1533 32.8267 18.2533 32.8 16.36C32.7733 14.4533 32.74 12.5533 32.7 10.66C32.6867 9.74 32.4733 9.08667 32.06 8.7C31.66 8.31333 31 8.12 30.08 8.12C29.1733 8.12 28.52 8.31333 28.12 8.7C27.72 9.08667 27.5067 9.74 27.48 10.66C27.4267 12.5533 27.3867 14.4533 27.36 16.36C27.3333 18.2533 27.32 20.1533 27.32 22.06C27.3333 23.9533 27.3533 25.8667 27.38 27.8C27.4067 29.72 27.44 31.66 27.48 33.62C27.5067 34.54 27.72 35.1933 28.12 35.58C28.52 35.9533 29.1733 36.14 30.08 36.14ZM29.2 4.54L32 0H34L31.12 4.54H29.2Z" fill="white"/>
<path d="M41.1444 38.14V8.54H37.0644V6.14H47.8644V8.54H43.8044V38.14H41.1444Z" fill="white"/>
<path d="M50.1953 38.14V6.14H52.8353V38.14H50.1953Z" fill="white"/>
<path d="M62.0503 38.44C60.2236 38.44 58.9103 38.0333 58.1103 37.22C57.3236 36.3933 56.9103 35.0467 56.8703 33.18C56.8303 31.3 56.8036 29.4467 56.7903 27.62C56.777 25.7933 56.7703 23.9733 56.7703 22.16C56.7703 20.3467 56.777 18.5267 56.7903 16.7C56.8036 14.86 56.8303 13 56.8703 11.12C56.897 9.38667 57.3103 8.08667 58.1103 7.22C58.9236 6.34 60.2236 5.9 62.0103 5.9C63.837 5.9 65.157 6.30667 65.9703 7.12C66.7836 7.92 67.2236 9.26 67.2903 11.14C67.3036 11.6467 67.3103 12.2867 67.3103 13.06C67.3103 13.82 67.3036 14.5867 67.2903 15.36C67.277 16.12 67.2636 16.7533 67.2503 17.26H64.6103C64.6236 16.58 64.6303 15.8667 64.6303 15.12C64.6436 14.3733 64.6503 13.6267 64.6503 12.88C64.6503 12.12 64.6436 11.4067 64.6303 10.74C64.617 9.79333 64.4036 9.12667 63.9903 8.74C63.5903 8.34 62.9303 8.14 62.0103 8.14C61.157 8.14 60.537 8.34 60.1503 8.74C59.7636 9.12667 59.557 9.79333 59.5303 10.74C59.4903 12.7133 59.457 14.6467 59.4303 16.54C59.417 18.42 59.4103 20.2933 59.4103 22.16C59.4103 24.0133 59.417 25.8867 59.4303 27.78C59.457 29.66 59.4903 31.5933 59.5303 33.58C59.557 34.5 59.7636 35.1667 60.1503 35.58C60.5503 35.98 61.1836 36.18 62.0503 36.18C63.0103 36.18 63.7036 35.98 64.1303 35.58C64.557 35.1667 64.777 34.5 64.7903 33.58C64.8036 32.8467 64.8103 32.08 64.8103 31.28C64.8103 30.48 64.8036 29.68 64.7903 28.88C64.777 28.08 64.7636 27.32 64.7503 26.6H67.4103C67.4503 27.7333 67.4703 28.8333 67.4703 29.9C67.4837 30.9533 67.477 32.0467 67.4503 33.18C67.3836 35.0467 66.9303 36.3933 66.0903 37.22C65.2636 38.0333 63.917 38.44 62.0503 38.44Z" fill="white"/>
<path d="M69.7756 38.14L73.1956 6.14H78.1556L81.5556 38.14H78.8556L78.0156 28.86H73.3156L72.4956 38.14H69.7756ZM73.5756 26.46H77.7556L77.1356 19.46L76.2356 8.54H75.1156L74.2156 19.48L73.5756 26.46Z" fill="white"/>
</svg>
