<svg width="40" height="40" viewBox="0 0 40 40" fill="none" xmlns="http://www.w3.org/2000/svg">
<circle cx="20" cy="20" r="19.5" stroke="#D11F9E"/>
<g clip-path="url(#clip0_13_265)">
<path d="M20.3333 19.8125C19.1875 19.8125 18.25 19.4479 17.5208 18.7188C16.7917 17.9896 16.4271 17.0521 16.4271 15.9063C16.4271 14.7604 16.7917 13.8229 17.5208 13.0938C18.25 12.3646 19.1875 12 20.3333 12C21.4792 12 22.4167 12.3646 23.1458 13.0938C23.875 13.8229 24.2396 14.7604 24.2396 15.9063C24.2396 17.0521 23.875 17.9896 23.1458 18.7188C22.4167 19.4479 21.4792 19.8125 20.3333 19.8125ZM12 28.1719V25.724C12 25.0642 12.1649 24.5 12.4948 24.0312C12.8247 23.5625 13.25 23.2066 13.7708 22.9635C14.934 22.4427 16.0495 22.0521 17.1172 21.7917C18.1849 21.5312 19.2569 21.401 20.3333 21.401C21.4097 21.401 22.4774 21.5356 23.5365 21.8047C24.5955 22.0738 25.7066 22.4601 26.8698 22.9635C27.408 23.2066 27.842 23.5625 28.1719 24.0312C28.5017 24.5 28.6667 25.0642 28.6667 25.724V28.1719H12ZM13.5625 26.6094H27.1042V25.724C27.1042 25.4462 27.0217 25.1814 26.8568 24.9297C26.6918 24.678 26.4878 24.4913 26.2448 24.3698C25.1337 23.8316 24.1181 23.4627 23.1979 23.263C22.2778 23.0634 21.3229 22.9635 20.3333 22.9635C19.3437 22.9635 18.3802 23.0634 17.4427 23.263C16.5052 23.4627 15.4896 23.8316 14.3958 24.3698C14.1528 24.4913 13.9531 24.678 13.7969 24.9297C13.6406 25.1814 13.5625 25.4462 13.5625 25.724V26.6094ZM20.3333 18.25C21.0104 18.25 21.5703 18.0286 22.013 17.5859C22.4557 17.1432 22.6771 16.5833 22.6771 15.9063C22.6771 15.2292 22.4557 14.6693 22.013 14.2266C21.5703 13.7839 21.0104 13.5625 20.3333 13.5625C19.6562 13.5625 19.0964 13.7839 18.6536 14.2266C18.2109 14.6693 17.9896 15.2292 17.9896 15.9063C17.9896 16.5833 18.2109 17.1432 18.6536 17.5859C19.0964 18.0286 19.6562 18.25 20.3333 18.25Z" fill="#D11F9E"/>
</g>
<defs>
<clipPath id="clip0_13_265">
<rect width="30" height="30" fill="white" transform="translate(4 5)"/>
</clipPath>
</defs>
</svg>
